<svg viewBox="0 0 32 32" xmlns="http://www.w3.org/2000/svg"><path d="m22.853516 6.0078125c-2.689395.0738008-4.774688.8045156-6.804688 1.5097656-2.171.754-4.220594 1.4651407-7.0585936 1.4941407-1.897.0299999-3.7970625-.2973594-5.6640625-.9433594l-1.3261719-.4589844v17.082031l.6660156.236328c1.739.615 3.5171094.969688 5.2871094 1.054688.281.013.5561719.019531.8261719.019531 3.0130001 0 5.3196411-.799266 7.5566411-1.572265 2.357999-.816 4.582187-1.58636 7.617187-1.44336 1.574.075 3.158891.393359 4.712891.94336l1.333984.472656v-17.0878909l-.658203-.2402343c-1.725-.625-3.506875-.9796407-5.296875-1.0566407-.4105-.01825-.807207-.0203086-1.191406-.0097656zm.054687 1.9863281c.338928-.0104922.687578-.0103437 1.048828.0039063.373964.0162234.748166.0501084 1.121094.09375.266799 1.0937103 1.245854 1.9082031 2.421875 1.9082031.171 0 .338-.0187812.5-.0507812v9.1015622c-.162-.032-.329-.050781-.5-.050781-1.235799 0-2.254942.898153-2.457031 2.076172-.332077-.034779-.664426-.058377-.996094-.074219-3.415-.15-5.933187.708734-8.367187 1.552735-2.361.817999-4.59786 1.591265-7.6308599 1.447265-.3758283-.018095-.7523086-.054143-1.1289062-.099609-.2689549-1.09065-1.2460719-1.902344-2.4199219-1.902344-.171 0-.338.018781-.5.050781v-9.101562c.162.032.329.050781.5.050781 1.2444763 0 2.2671584-.911314 2.4589844-2.101562.6849131.071601 1.3704985.113014 2.0527344.101562 3.1650002-.032 5.4663592-.833422 7.6933592-1.6074219 1.960875-.6825 3.830631-1.3249922 6.203125-1.3984375zm-6.908203 3.0058594c-2.206 0-4 2.243-4 5s1.794 5 4 5 4-2.243 4-5-1.794-5-4-5zm0 2c1.084 0 2 1.374 2 3s-.916 3-2 3-2-1.374-2-3 .916-3 2-3zm7.5 0a1.5 1.5 0 0 0 0 3 1.5 1.5 0 0 0 0-3zm-15 3a1.5 1.5 0 0 0 0 3 1.5 1.5 0 0 0 0-3z"/></svg>